<?xml version="1.0" encoding="iso-8859-1"?>
<!-- Generator: Adobe Illustrator 16.0.0, SVG Export Plug-In . SVG Version: 6.00 Build 0)  -->
<!DOCTYPE svg PUBLIC "-//W3C//DTD SVG 1.1//EN" "http://www.w3.org/Graphics/SVG/1.1/DTD/svg11.dtd">
<svg version="1.1" id="Capa_1" xmlns="http://www.w3.org/2000/svg" xmlns:xlink="http://www.w3.org/1999/xlink" x="0px" y="0px"
	 width="430.598px" height="430.598px" viewBox="0 0 430.598 430.598" style="enable-background:new 0 0 430.598 430.598;"
	 xml:space="preserve">
<g>
	<g>
		<path d="M111.153,166.36c-27.028,0-48.938,21.91-48.938,48.938c0,27.027,21.91,48.938,48.938,48.938
			c0.875,0,1.744-0.024,2.607-0.069c-2.098-1.157-3.619-2.813-4.238-4.898c-1.729-5.823,4.167-12.711,13.168-15.382
			s17.698-0.115,19.427,5.708c0.335,1.127,0.377,2.293,0.173,3.461c10.872-8.978,17.802-22.557,17.802-37.757
			C160.091,188.27,138.181,166.36,111.153,166.36z M101.282,199.643c-9.001,2.671-17.699,0.116-19.428-5.708
			c-1.729-5.824,4.167-12.711,13.168-15.382s17.698-0.116,19.427,5.708C116.178,190.085,110.283,196.972,101.282,199.643z"/>
		<path d="M411.413,170.48c-26.389-54.146-74.564-90.524-119.88-90.524c-12.183,0-23.71,2.608-34.267,7.752
			c-19.523,9.515-33.987,26.751-41.968,49.547c-7.979-22.796-22.443-40.032-41.968-49.547c-10.556-5.144-22.084-7.752-34.266-7.752
			c-45.315,0-93.492,36.379-119.88,90.525c-16.313,33.475-22.52,69.543-17.476,101.56c5.262,33.397,22.047,58.56,47.264,70.848
			c10.554,5.144,22.082,7.752,34.264,7.753c0.003,0,0.003,0,0.006,0c45.312,0,93.486-36.379,119.874-90.523
			c5.036-10.334,9.105-20.914,12.182-31.547c3.076,10.633,7.146,21.213,12.183,31.549c26.388,54.144,74.562,90.521,119.878,90.521
			c12.182,0,23.71-2.607,34.266-7.753c25.217-12.288,42.002-37.448,47.264-70.848C433.933,240.024,427.727,203.955,411.413,170.48z
			 M184.241,250.917c-11.544,23.688-27.626,43.744-46.508,58.007c-17.688,13.358-37.038,20.717-54.49,20.717
			c-0.001,0-0.002,0-0.004,0c-8.967-0.001-17.4-1.896-25.065-5.63c-18.87-9.195-31.556-28.812-35.719-55.238
			c-4.381-27.809,1.162-59.448,15.608-89.092c11.544-23.687,27.626-43.745,46.508-58.006c17.688-13.36,37.042-20.718,54.495-20.718
			c8.967,0,17.4,1.894,25.066,5.63c18.87,9.196,31.556,28.814,35.718,55.239C204.231,189.633,198.687,221.274,184.241,250.917z
			 M408.145,268.772c-4.163,26.426-16.849,46.043-35.719,55.238c-7.666,3.735-16.099,5.63-25.065,5.63
			c-17.452,0-36.807-7.358-54.493-20.718c-18.883-14.262-34.964-34.318-46.508-58.005c-14.445-29.646-19.989-61.285-15.609-89.093
			c4.162-26.425,16.848-46.043,35.718-55.239c7.666-3.736,16.1-5.63,25.066-5.63c17.453,0,36.807,7.358,54.494,20.718
			c18.883,14.262,34.965,34.32,46.509,58.006C406.982,209.324,412.525,240.964,408.145,268.772z"/>
		<path d="M319.447,166.36c-27.028,0-48.938,21.91-48.938,48.938c0,15.2,6.93,28.779,17.802,37.757
			c-0.204-1.168-0.162-2.334,0.173-3.461c1.729-5.823,10.427-8.379,19.428-5.708s14.896,9.559,13.168,15.382
			c-0.619,2.085-2.142,3.741-4.238,4.898c0.863,0.045,1.732,0.069,2.607,0.069c27.027,0,48.938-21.91,48.938-48.938
			C368.386,188.27,346.476,166.36,319.447,166.36z M348.745,193.935c-1.729,5.824-10.428,8.38-19.429,5.708
			c-9.001-2.672-14.896-9.558-13.167-15.382c1.729-5.824,10.427-8.38,19.428-5.708S350.474,188.111,348.745,193.935z"/>
	</g>
</g>
<g>
</g>
<g>
</g>
<g>
</g>
<g>
</g>
<g>
</g>
<g>
</g>
<g>
</g>
<g>
</g>
<g>
</g>
<g>
</g>
<g>
</g>
<g>
</g>
<g>
</g>
<g>
</g>
<g>
</g>
</svg>
